#!OML:ASF H:\Dans Jumps\Project 1\Capture day 1\Session 1\subject.ASF
:FULLY-SPECIFIED
:DEGREES
81
root -0.258675 16.9166 -15.1132 12.2027 -1.24771 -1.61454
lowerback 9.76958 -0.0452831 0.550778
upperback 8.04477 -0.0499526 1.48351
thorax 2.89756 -0.0447793 1.2317
lowerneck -14.5381 0.388167 -1.63762
upperneck 31.0271 0.636731 1.15718
head 12.7189 0.234332 0.823517
rclavicle -7.95139e-016 -9.93923e-016
rhumerus -29.2948 -14.3796 -77.0318
rradius 26.4034
rwrist 27.2998
rhand -20.739 -25.6507
rfingers 7.12502
rthumb 5.62634 -55.556
lclavicle -7.95139e-016 -9.93923e-016
lhumerus -26.0137 0.390819 86.3723
lradius 20.1606
lwrist 12.134
lhand -28.0762 -6.52014
lfingers 7.12502
lthumb -1.45953 23.4546
rfemur -36.2816 -2.63096 20.6234
rtibia 42.5869
rfoot -17.4144 -1.75341
rtoes 6.95493
lfemur -35.412 8.10287 -18.7774
ltibia 41.5118
lfoot -16.1223 6.79835
ltoes 0.412563
82
root -0.258309 16.9169 -15.116 12.2099 -1.24502 -1.62097
lowerback 9.79081 -0.0431441 0.540771
upperback 8.06002 -0.0477352 1.48316
thorax 2.90208 -0.0441518 1.23687
lowerneck -14.5374 0.417021 -1.61051
upperneck 31.016 0.681295 1.12408
head 12.7137 0.25278 0.812593
rclavicle -9.14409e-015 -1.59028e-015
rhumerus -29.4463 -14.4096 -76.9998
rradius 26.3911
rwrist 27.4326
rhand -20.7611 -25.6313
rfingers 7.12502
rthumb 5.60505 -55.5372
lclavicle -9.14409e-015 -1.59028e-015
lhumerus -26.1517 0.311829 86.3973
lradius 20.1803
lwrist 12.3517
lhand -28.1177 -6.5763
lfingers 7.12502
lthumb -1.49958 23.3982
rfemur -36.2961 -2.6386 20.6315
rtibia 42.579
rfoot -17.4013 -1.7418
rtoes 6.96361
lfemur -35.4297 8.08245 -18.7687
ltibia 41.51
lfoot -16.1086 6.81561
ltoes 0.416187
83
root -0.257606 16.9175 -15.1186 12.219 -1.24493 -1.63193
lowerback 9.81001 -0.0412996 0.536426
upperback 8.07647 -0.0456016 1.48318
thorax 2.90897 -0.0433407 1.23927
lowerneck -14.5422 0.45058 -1.57217
upperneck 31.0049 0.732915 1.08034
head 12.7097 0.274235 0.796712
rclavicle 2.98177e-016 6.55989e-015
rhumerus -29.6005 -14.4453 -76.9632
rradius 26.3729
rwrist 27.5529
rhand -20.7777 -25.6104
rfingers 7.12502
rthumb 5.58902 -55.5167
lclavicle 2.98177e-016 6.55989e-015
lhumerus -26.2893 0.254055 86.4129
lradius 20.1843
lwrist 12.5285
lhand -28.1494 -6.61549
lfingers 7.12502
lthumb -1.53021 23.3588
rfemur -36.3086 -2.64703 20.6439
rtibia 42.5635
rfoot -17.3854 -1.72599
rtoes 6.97505
lfemur -35.4463 8.0676 -18.7575
ltibia 41.5035
lfoot -16.0946 6.83067
ltoes 0.413131
84
root -0.256659 16.9184 -15.1212 12.2277 -1.24533 -1.64487
lowerback 9.8302 -0.0398807 0.534293
upperback 8.09402 -0.0438918 1.48321
thorax 2.9165 -0.0426506 1.24046
lowerneck -14.5585 0.47347 -1.54722
upperneck 31.0029 0.769588 1.04777
head 12.712 0.288974 0.785391
rclavicle 3.27995e-015 2.98177e-015
rhumerus -29.7569 -14.4859 -76.9228
rradius 26.3454
rwrist 27.6526
rhand -20.7795 -25.5875
rfingers 7.12502
rthumb 5.58724 -55.4938
lclavicle 3.27995e-015 2.98177e-015
lhumerus -26.43 0.219524 86.4173
lradius 20.1781
lwrist 12.6554
lhand -28.1671 -6.62773
lfingers 7.12502
lthumb -1.54731 23.3464
rfemur -36.3169 -2.65697 20.6581
rtibia 42.5414
rfoot -17.3689 -1.70843
rtoes 6.99581
lfemur -35.4602 8.05525 -18.7454
ltibia 41.4936
lfoot -16.0799 6.84512
ltoes 0.408331
85
root -0.255493 16.9194 -15.1236 12.238 -1.2477 -1.66288
lowerback 9.84773 -0.037791 0.536874
upperback 8.1116 -0.0410319 1.48318
thorax 2.9255 -0.0411819 1.23885
lowerneck -14.5812 0.486541 -1.5248
upperneck 31.0077 0.792354 1.01706
head 12.7188 0.297516 0.773265
rclavicle -8.74653e-015 7.35503e-015
rhumerus -29.9152 -14.5356 -76.8787
rradius 26.3041
rwrist 27.7285
rhand -20.7739 -25.5665
rfingers 7.12502
rthumb 5.5926 -55.4727
lclavicle -8.74653e-015 7.35503e-015
lhumerus -26.5748 0.204342 86.4093
lradius 20.1599
lwrist 12.7326
lhand -28.1702 -6.64993
lfingers 7.12502
lthumb -1.55033 23.3242
rfemur -36.324 -2.66654 20.6774
rtibia 42.5139
rfoot -17.3518 -1.69011
rtoes 7.00686
lfemur -35.4741 8.04904 -18.73
ltibia 41.4815
lfoot -16.0663 6.85678
ltoes 0.402843
86
root -0.25421 16.9205 -15.126 12.2506 -1.25308 -1.68381
lowerback 9.86377 -0.0343245 0.540555
upperback 8.12856 -0.0363071 1.48321
thorax 2.93462 -0.038738 1.23657
lowerneck -14.5982 0.484908 -1.52397
upperneck 31.0126 0.794429 1.00379
head 12.7245 0.296751 0.768484
rclavicle 0 -2.98177e-015
rhumerus -30.0768 -14.5963 -76.8296
rradius 26.2549
rwrist 27.781
rhand -20.7533 -25.5503
rfingers 7.12502
rthumb 5.61255 -55.456
lclavicle 0 -2.98177e-015
lhumerus -26.728 0.198437 86.393
lradius 20.1393
lwrist 12.7752
lhand -28.1648 -6.66384
lfingers 7.12502
lthumb -1.5451 23.3103
rfemur -36.3325 -2.67178 20.6989
rtibia 42.4831
rfoot -17.3333 -1.6726
rtoes 7.02386
lfemur -35.4899 8.04818 -18.7132
ltibia 41.4684
lfoot -16.0537 6.86784
ltoes 0.39499
87
root -0.252772 16.9216 -15.1284 12.264 -1.26132 -1.70512
lowerback 9.88155 -0.0295788 0.544732
upperback 8.14331 -0.0297959 1.4823
thorax 2.94041 -0.0353472 1.23289
lowerneck -14.6052 0.478812 -1.52326
upperneck 31.017 0.789935 0.990508
head 12.728 0.2931 0.762673
rclavicle -1.39149e-015 8.94531e-015
rhumerus -30.2466 -14.6706 -76.7744
rradius 26.2021
rwrist 27.8183
rhand -20.7205 -25.5444
rfingers 7.12502
rthumb 5.64425 -55.4492
lclavicle -1.39149e-015 8.94531e-015
lhumerus -26.8885 0.191183 86.3718
lradius 20.1136
lwrist 12.8014
lhand -28.1551 -6.63719
lfingers 7.12502
lthumb -1.53569 23.337
rfemur -36.3416 -2.67398 20.7196
rtibia 42.4513
rfoot -17.3145 -1.65521
rtoes 7.0387
lfemur -35.506 8.05211 -18.6974
ltibia 41.4549
lfoot -16.0429 6.87694
ltoes 0.388895
88
root -0.25122 16.9226 -15.1307 12.2801 -1.2694 -1.72632
lowerback 9.8985 -0.0256531 0.546774
upperback 8.15716 -0.0245157 1.48209
thorax 2.94574 -0.0326834 1.23121
lowerneck -14.5969 0.479048 -1.50338
upperneck 31.0049 0.794779 0.958481
head 12.7215 0.293431 0.74747
rclavicle 2.18663e-015 2.08724e-014
rhumerus -30.4168 -14.752 -76.7138
rradius 26.1393
rwrist 27.8457
rhand -20.6852 -25.5493
rfingers 7.12502
rthumb 5.6783 -55.4532
lclavicle 2.18663e-015 2.08724e-014
lhumerus -27.0534 0.188042 86.3461
lradius 20.0824
lwrist 12.8146
lhand -28.1445 -6.62056
lfingers 7.12502
lthumb -1.52544 23.3537
rfemur -36.3541 -2.67506 20.7397
rtibia 42.4203
rfoot -17.2947 -1.63896
rtoes 7.04908
lfemur -35.5256 8.05855 -18.6829
ltibia 41.4417
lfoot -16.0331 6.883
ltoes 0.381098
89
root -0.249395 16.9235 -15.1331 12.2982 -1.27777 -1.74102
lowerback 9.91589 -0.022838 0.54482
upperback 8.1693 -0.0209254 1.48151
thorax 2.94905 -0.0310233 1.23152
lowerneck -14.5632 0.484353 -1.50188
upperneck 30.9753 0.806432 0.942829
head 12.702 0.296856 0.742455
rclavicle -1.59028e-015 -3.37934e-015
rhumerus -30.6026 -14.8409 -76.6423
rradius 26.0914
rwrist 27.8814
rhand -20.6414 -25.5594
rfingers 7.12502
rthumb 5.72054 -55.4622
lclavicle -1.59028e-015 -3.37934e-015
lhumerus -27.2257 0.188215 86.322
lradius 20.0494
lwrist 12.8303
lhand -28.1417 -6.57534
lfingers 7.12502
lthumb -1.52281 23.399
rfemur -36.3703 -2.67823 20.7519
rtibia 42.3918
rfoot -17.274 -1.62249
rtoes 7.05439
lfemur -35.5478 8.06668 -18.6774
ltibia 41.4289
lfoot -16.0249 6.88546
ltoes 0.376135
90
root -0.247374 16.9244 -15.1354 12.3156 -1.28386 -1.75413
lowerback 9.93724 -0.0221395 0.541404
upperback 8.1819 -0.0201779 1.4816
thorax 2.95074 -0.0308657 1.23354
lowerneck -14.5317 0.493799 -1.49811
upperneck 30.9417 0.824267 0.924461
head 12.6813 0.302922 0.736899
rclavicle -5.96354e-016 1.98785e-015
rhumerus -30.7943 -14.9255 -76.5662
rradius 26.0453
rwrist 27.9225
rhand -20.5968 -25.568
rfingers 7.12502
rthumb 5.76368 -55.4696
lclavicle -5.96354e-016 1.98785e-015
lhumerus -27.4019 0.198138 86.2935
lradius 20.0131
lwrist 12.8424
lhand -28.1382 -6.55132
lfingers 7.12502
lthumb -1.51937 23.423
rfemur -36.3862 -2.68456 20.7622
rtibia 42.3663
rfoot -17.2549 -1.60604
rtoes 7.05437
lfemur -35.5698 8.07529 -18.6746
ltibia 41.4174
lfoot -16.0175 6.88444
ltoes 0.373978
91
root -0.245146 16.9252 -15.1375 12.3334 -1.28965 -1.76409
lowerback 9.95905 -0.0227177 0.534936
upperback 8.19486 -0.0213185 1.48169
thorax 2.95259 -0.0317892 1.23742
lowerneck -14.5124 0.503945 -1.49508
upperneck 30.9148 0.84348 0.906163
head 12.666 0.309466 0.731837
rclavicle -2.68359e-015 2.78299e-015
rhumerus -30.9933 -14.9981 -76.4873
rradius 26.0033
rwrist 27.9666
rhand -20.5695 -25.5609
rfingers 7.12502
rthumb 5.78995 -55.4618
lclavicle -2.68359e-015 2.78299e-015
lhumerus -27.5856 0.212254 86.2636
lradius 19.9788
lwrist 12.8603
lhand -28.1369 -6.55059
lfingers 7.12502
lthumb -1.51811 23.4238
rfemur -36.4041 -2.6924 20.7685
rtibia 42.3445
rfoot -17.2373 -1.58918
rtoes 7.05286
lfemur -35.5928 8.08629 -18.6767
ltibia 41.4079
lfoot -16.0121 6.87863
ltoes 0.37139
